<svg version="1.1" xmlns="http://www.w3.org/2000/svg" viewBox="-2419.3695603704728 -1602.7 6946.569560370473 2693.4"><desc>Created with Snap</desc><defs></defs><g><g transform="matrix(20.9258,0,0,20.9258,-2232.3671,-1297.964)"><path fill="#731237" d="M93.978,22.513c-0.004-0.025-0.008-0.05-0.012-0.075c-0.018-0.114-0.042-0.228-0.073-0.34  c-0.006-0.019-0.011-0.039-0.016-0.058c-0.037-0.125-0.082-0.247-0.135-0.368c-0.012-0.024-0.024-0.048-0.036-0.072  c-0.028-0.06-0.056-0.12-0.088-0.179c-0.019-0.033-0.04-0.063-0.06-0.095c-0.019-0.032-0.037-0.062-0.058-0.094  c-0.065-0.1-0.135-0.196-0.209-0.286c-0.006-0.007-0.012-0.016-0.018-0.023c-0.087-0.103-0.18-0.197-0.276-0.286  c-0.019-0.017-0.038-0.033-0.059-0.049c-0.086-0.076-0.176-0.145-0.27-0.21c-0.019-0.013-0.036-0.026-0.055-0.039  c-0.11-0.073-0.226-0.138-0.343-0.196c-0.008-0.003-0.015-0.009-0.021-0.013l-20.518-9.854L51.217,0.423  c-0.848-0.407-1.834-0.407-2.683,0l-20.517,9.854L7.5,20.13c-0.007,0.003-0.014,0.008-0.021,0.012  c-0.119,0.059-0.234,0.124-0.345,0.197c-0.019,0.012-0.036,0.025-0.055,0.038c-0.093,0.064-0.183,0.134-0.27,0.21  c-0.02,0.017-0.04,0.033-0.059,0.05c-0.096,0.088-0.189,0.182-0.275,0.284c-0.008,0.01-0.015,0.02-0.023,0.03  c-0.072,0.088-0.14,0.182-0.204,0.278C6.23,21.263,6.21,21.295,6.19,21.328c-0.019,0.031-0.04,0.061-0.058,0.093  c-0.032,0.058-0.058,0.116-0.085,0.175c-0.013,0.026-0.027,0.051-0.039,0.078c-0.053,0.12-0.098,0.242-0.134,0.365  c-0.006,0.021-0.011,0.043-0.017,0.065c-0.03,0.11-0.055,0.221-0.072,0.332c-0.004,0.027-0.009,0.053-0.013,0.08  c-0.018,0.134-0.028,0.268-0.028,0.401c0,0.002,0,0.005,0,0.007v25.243v0.104v25.242c0,1.126,0.611,2.164,1.596,2.71l19.928,11.051  c0.178,0.163,0.373,0.31,0.589,0.431L48.373,99.08c0.001,0.001,0.002,0.002,0.004,0.002c0.109,0.062,0.223,0.114,0.339,0.161  c0.02,0.008,0.039,0.015,0.059,0.021c0.092,0.035,0.188,0.065,0.285,0.094c0.03,0.008,0.062,0.016,0.092,0.023  c0.089,0.021,0.179,0.038,0.271,0.052c0.03,0.004,0.061,0.01,0.091,0.014c0.119,0.014,0.238,0.022,0.36,0.022  s0.242-0.009,0.36-0.022c0.031-0.004,0.061-0.01,0.092-0.014c0.092-0.014,0.183-0.03,0.271-0.052  c0.03-0.008,0.062-0.016,0.092-0.023c0.098-0.028,0.192-0.059,0.286-0.094c0.019-0.007,0.039-0.014,0.059-0.021  c0.115-0.047,0.229-0.1,0.338-0.161c0.002,0,0.003-0.001,0.005-0.002l20.517-11.376c0.217-0.121,0.411-0.268,0.588-0.431  l19.929-11.051c0.984-0.546,1.596-1.584,1.596-2.71V48.271v-0.104V22.923c0-0.001,0-0.003,0-0.005  C94.007,22.783,93.995,22.648,93.978,22.513z M11.94,28.184l14.32,7.941v18.262l-14.32-7.941V28.184z M29.358,16.506l13.772,6.615  l-13.772,7.637l-13.772-7.637L29.358,16.506z M70.392,16.506l13.772,6.615l-13.772,7.637L56.62,23.121L70.392,16.506z   M49.875,67.482l-14.129-7.835l14.129-7.835l14.128,7.835L49.875,67.482z M67.294,54.387l-14.32-7.941V28.184l14.32,7.941V54.387z   M46.777,46.445l-14.321,7.941V36.125l14.321-7.941V46.445z M32.457,64.907l14.321,7.942V91.11l-14.321-7.94V64.907z M52.974,72.849  l14.32-7.941V83.17l-14.32,7.94V72.849z M73.49,54.387V36.125l14.321-7.941v18.262L73.49,54.387z M49.875,6.652l13.361,6.417  l-13.361,6.417l-13.361-6.417L49.875,6.652z M11.94,53.53l14.32,7.941v18.159l-14.32-7.941V53.53z M73.49,79.631V61.472  l14.321-7.941v18.159L73.49,79.631z" style=""></path><desc>Created with Snap</desc><defs></defs></g><g><g transform="matrix(0.5,0,0,-0.5,0,0)"><path d="M957 337L904 512L1173 1421L1622 1421L1622 1362Q1598 1350 1574 1343Q1550 1337 1531 1328Q1489 1306 1489 1253L1489 184Q1489 122 1532 98Q1551 87 1576 79Q1601 71 1629 59L1629 0L1106 0L1106 59Q1130 71 1153 79Q1177 87 1196 98Q1239 123 1239 184L1239 1278L1235 1278L957 337ZM224 1224L338 1181L338 213Q338 135 384 103Q405 89 431 80Q458 72 485 59L485 0L84 0L84 59Q108 71 133 78Q158 86 178 100Q224 131 224 211L224 1224ZM739 0L342 1257Q131 1338 84 1362L84 1421L535 1421L918 206L857 0L739 0ZM2333 235L2276 365Q2309 459 2337 537Q2366 616 2388 677Q2435 807 2435 839Q2435 872 2424 881Q2413 891 2396 896Q2380 902 2360 906Q2340 911 2322 920L2322 981L2676 981L2676 920Q2660 910 2643 905Q2627 900 2612 894Q2576 878 2562 840L2333 235ZM1890 -141Q1904 -153 1912 -171Q1920 -188 1920 -217Q1920 -246 1885 -283Q1900 -303 1924 -303Q1984 -303 2038 -226Q2093 -148 2135 -6L1792 850Q1775 894 1707 910Q1691 914 1677 920L1677 981L2135 981L2135 922Q2114 914 2093 908Q2072 903 2055 896Q2016 882 2016 858Q2016 844 2057 737L2058 736Q2118 585 2176 435Q2235 286 2295 136L2178 -168Q2081 -412 1889 -412Q1759 -412 1715 -310Q1701 -277 1701 -227Q1701 -177 1734 -145Q1768 -113 1804 -113Q1840 -113 1858 -121Q1876 -128 1890 -141ZM3106 1421L3356 1421L3356 229Q3356 150 3373 127Q3390 105 3404 98Q3419 92 3437 88Q3488 75 3514 59L3514 0L2952 0L2952 59Q2974 73 3009 82Q3045 92 3059 98Q3074 104 3085 118Q3106 148 3106 229L3106 1421ZM3439 1421L3653 1421Q3694 1421 3790 1436L3790 963L3722 963Q3708 1001 3697 1043Q3687 1086 3674 1127Q3661 1169 3644 1207Q3627 1246 3600 1275Q3540 1339 3439 1339L3439 1421ZM2673 1434L2675 1436Q2723 1421 2748 1421L3023 1421L3023 1339Q2879 1339 2819 1206Q2790 1143 2773 1071Q2756 1000 2743 963L2673 963L2673 1434ZM4089 987L4101 750L4101 197Q4101 107 4145 90Q4159 84 4175 80Q4228 65 4250 53L4250 0L3768 0L3768 53Q3787 65 3808 72Q3829 80 3847 90Q3888 111 3888 158L3888 737Q3888 852 3869 870Q3851 888 3833 896Q3816 904 3797 909Q3778 915 3764 926L3764 987L4089 987ZM4407 718Q4363 718 4338 739Q4313 760 4313 791Q4313 822 4339 852Q4330 858 4316 858Q4248 857 4184 762L4184 916Q4258 1008 4352 1008Q4460 1008 4497 914Q4509 885 4509 836Q4509 787 4480 752Q4451 718 4407 718ZM5079 594L5079 510Q4811 413 4811 227Q4811 152 4847 106Q4883 61 4954 61Q5026 61 5079 114L5079 19Q5002 -27 4905 -27Q4808 -27 4749 -8Q4691 11 4651 44Q4568 111 4568 221Q4568 448 4971 564Q5028 581 5079 594ZM4842 868Q4897 847 4897 772Q4897 724 4863 695Q4829 666 4771 666Q4714 666 4680 697Q4647 728 4647 777Q4647 826 4670 865Q4693 904 4735 934Q4822 997 4954 1007L4954 931Q4873 923 4842 868ZM5437 99Q5492 99 5507 199L5558 172Q5548 75 5504 24Q5461 -27 5366 -27Q5292 -27 5256 0Q5198 44 5162 133L5162 756Q5162 818 5129 863Q5097 909 5037 925L5037 1007Q5376 989 5376 649L5376 176Q5376 99 5437 99ZM6288 846Q6260 915 6163 925L6163 1006Q6296 999 6375 918Q6444 849 6444 759Q6444 667 6373 634Q6349 623 6308 623Q6267 623 6234 653Q6202 684 6202 724Q6202 764 6211 783Q6220 802 6233 814Q6246 826 6261 833Q6276 840 6288 846ZM6163 -22L6163 64Q6285 82 6343 218Q6360 256 6373 295L6456 270Q6400 77 6273 12Q6226 -13 6163 -22ZM5871 492Q5871 100 6080 64L6080 -27Q5891 -23 5765 108Q5632 249 5632 481Q5632 686 5756 837Q5884 993 6080 1007L6080 919Q5930 884 5886 665Q5871 590 5871 492ZM6920 1427L6920 201Q6920 109 6960 90Q6972 85 6986 80Q7027 67 7045 53L7045 0L6580 0L6580 53Q6602 71 6625 76Q6648 81 6666 90Q6707 112 6707 201L6707 1217Q6707 1317 6668 1333Q6656 1338 6642 1342Q6598 1352 6580 1366L6580 1427L6920 1427ZM7003 538L7003 598L7181 764Q7250 828 7250 858Q7250 888 7170 904Q7148 909 7129 918L7129 981L7573 981L7573 922Q7550 911 7523 899Q7496 888 7462 868Q7382 822 7292 735L7178 625L7478 139Q7504 95 7534 85Q7565 75 7583 70Q7601 66 7620 55L7620 0L7181 0L7181 53Q7230 76 7232 123Q7232 136 7226 147L7003 538ZM8077 -26L8077 53Q8152 64 8197 108Q8243 153 8243 212Q8243 271 8219 303Q8196 336 8157 359Q8119 383 8070 401Q8021 420 7970 438Q7919 457 7870 480Q7821 503 7782 535Q7697 606 7697 721Q7697 824 7775 904Q7863 996 8005 1007L8005 928Q7947 917 7912 880Q7878 843 7878 793Q7878 743 7902 713Q7926 684 7965 662Q8005 641 8055 623Q8106 606 8159 586Q8212 567 8262 543Q8313 520 8352 485Q8440 407 8440 283Q8440 174 8358 88Q8260 -15 8077 -26ZM8145 772Q8145 847 8200 868Q8169 923 8088 931L8088 1007Q8220 997 8308 934Q8395 871 8395 782Q8395 728 8361 697Q8328 666 8270 666Q8213 666 8179 695Q8145 724 8145 772ZM7937 209Q7937 134 7882 113Q7913 58 7994 50L7994 -26Q7865 -18 7774 47Q7687 110 7687 199Q7687 253 7720 284Q7754 315 7811 315Q7869 315 7903 286Q7937 257 7937 209Z" fill="#fa858b" style=""></path></g></g></g></svg>